<?xml version="1.0" encoding="UTF-8"?>
<svg xmlns="http://www.w3.org/2000/svg" xmlns:xlink="http://www.w3.org/1999/xlink" viewBox="0 0 720 720">
  <defs>
    <style>
      .cls-1 {
        isolation: isolate;
      }

      .cls-2 {
        fill: url(#linear-gradient);
        mix-blend-mode: overlay;
      }

      .cls-3 {
        fill: #00a79d;
      }

      .cls-4 {
        fill: #58595b;
      }
    </style>
    <linearGradient id="linear-gradient" x1="440.02" y1="353.21" x2="397.87" y2="277.74" gradientUnits="userSpaceOnUse">
      <stop offset="0" stop-color="#fff"/>
      <stop offset=".72" stop-color="#fff" stop-opacity=".28"/>
      <stop offset="1" stop-color="#fff" stop-opacity="0"/>
    </linearGradient>
  </defs>
  <g class="cls-1">
    <g id="Layer_1" data-name="Layer 1">
      <g>
        <path class="cls-4" d="m241.83,409.05h15.03l12.24,19.87,12.24-19.87h15.03v51.32h-14.15v-29.47l-13.09,20.09h-.29l-13.01-19.94v29.33h-14v-51.32Z"/>
        <path class="cls-4" d="m306.93,409.05h41.2v12.1h-27.2v7.77h24.63v11.22h-24.63v8.14h27.56v12.1h-41.57v-51.32Z"/>
        <path class="cls-4" d="m357.29,409.05h14.22v19.21h18.26v-19.21h14.22v51.32h-14.22v-19.5h-18.26v19.5h-14.22v-51.32Z"/>
        <path class="cls-4" d="m425.62,421.51h-15.4v-12.46h45.01v12.46h-15.4v38.86h-14.22v-38.86Z"/>
        <path class="cls-4" d="m471.88,408.68h13.71l21.85,51.68h-15.25l-3.74-9.16h-19.79l-3.67,9.16h-14.96l21.85-51.68Zm12.46,31.52l-5.72-14.59-5.79,14.59h11.51Z"/>
      </g>
      <g>
        <path class="cls-4" d="m294.54,476.32h16.95v3.64h-12.95v6.21h11.48v3.64h-11.48v9.27h-4v-22.77Z"/>
        <path class="cls-4" d="m319.35,476.32h4v22.77h-4v-22.77Z"/>
        <path class="cls-4" d="m332.68,476.32h3.71l12.2,15.74v-15.74h3.94v22.77h-3.35l-12.56-16.2v16.2h-3.94v-22.77Z"/>
        <path class="cls-4" d="m359.67,476.32h4.42l6.86,17.5,6.83-17.5h4.33l-9.47,22.93h-3.51l-9.46-22.93Z"/>
        <path class="cls-4" d="m389.26,476.32h16.88v3.58h-12.88v5.92h11.42v3.58h-11.42v6.12h13.04v3.58h-17.04v-22.77Z"/>
        <path class="cls-4" d="m412.77,495.77l2.41-2.86c2.18,1.89,4.36,2.96,7.19,2.96,2.47,0,4.03-1.14,4.03-2.86v-.07c0-1.63-.91-2.5-5.14-3.48-4.85-1.17-7.58-2.6-7.58-6.8v-.07c0-3.9,3.25-6.6,7.77-6.6,3.32,0,5.95,1.01,8.26,2.86l-2.15,3.03c-2.05-1.53-4.1-2.34-6.18-2.34-2.34,0-3.71,1.2-3.71,2.7v.07c0,1.76,1.04,2.54,5.4,3.58,4.81,1.17,7.32,2.89,7.32,6.67v.07c0,4.26-3.35,6.8-8.13,6.8-3.48,0-6.77-1.2-9.5-3.64Z"/>
        <path class="cls-4" d="m443.47,480.03h-7.22v-3.71h18.48v3.71h-7.22v19.06h-4.03v-19.06Z"/>
      </g>
      <g>
        <g>
          <polygon class="cls-3" points="299.61 287.72 355.08 368.38 464.96 211.93 354.16 321.23 299.61 287.72"/>
          <polygon class="cls-2" points="299.61 287.72 354.16 344.6 464.96 211.93 354.16 321.23 299.61 287.72"/>
        </g>
        <polygon class="cls-3" points="313.7 376.71 299.61 376.71 299.61 299.27 313.7 318.98 313.7 376.71"/>
        <polygon class="cls-3" points="423.72 376.71 409.63 376.71 409.63 304.05 423.72 280.58 423.72 376.71"/>
      </g>
    </g>
  </g>
</svg>